<svg width="32" height="32" viewBox="0 0 32 32" fill="none" xmlns="http://www.w3.org/2000/svg">
<path d="M14.6161 3.1993C15.0391 3.15249 15.4261 2.93958 15.6921 2.60741C15.9581 2.27523 16.0812 1.851 16.0344 1.42804C15.9876 1.00507 15.7747 0.61803 15.4425 0.352048C15.1103 0.0860658 14.6861 -0.0370656 14.2631 0.00974104C6.23792 0.896978 0 7.69645 0 15.9559C0 24.8171 7.18291 32 16.044 32C24.3003 32 31.0981 25.7637 31.9902 17.7448C32.0372 17.3219 31.9143 16.8976 31.6484 16.5652C31.3826 16.2329 30.9956 16.0198 30.5727 15.9728C30.1497 15.9258 29.7254 16.0487 29.3931 16.3145C29.0608 16.5804 28.8476 16.9673 28.8006 17.3903C28.4311 20.6474 26.8296 23.6397 24.3244 25.7538C21.8192 27.8678 18.6001 28.9434 15.3273 28.76C12.0544 28.5766 8.97574 27.148 6.72246 24.7673C4.46918 22.3865 3.21204 19.2339 3.2088 15.9559C3.2089 12.799 4.3723 9.75276 6.47667 7.39947C8.58104 5.04618 11.4788 3.55086 14.6161 3.1993ZM20.4834 0.539195C20.0779 0.436887 19.6485 0.496948 19.2866 0.706582C18.9248 0.916216 18.6591 1.25886 18.5461 1.66151C18.4332 2.06416 18.4819 2.49501 18.6819 2.86226C18.882 3.22952 19.2175 3.50416 19.617 3.62768C20.0775 3.75763 20.5299 3.91326 20.9679 4.09295C21.362 4.25401 21.8038 4.25195 22.1963 4.08721C22.5888 3.92248 22.8998 3.60857 23.0609 3.21454C23.2219 2.82052 23.2199 2.37865 23.0551 1.98614C22.8904 1.59364 22.5765 1.28265 22.1825 1.12159C21.6276 0.895304 21.0604 0.700855 20.4834 0.539195ZM24.626 4.22933C24.7685 4.07415 24.9402 3.94856 25.1313 3.85973C25.3223 3.77091 25.529 3.72059 25.7395 3.71165C25.9501 3.70271 26.1603 3.73533 26.3582 3.80763C26.5561 3.87994 26.7378 3.99052 26.893 4.13307C27.2331 4.44432 27.5588 4.77001 27.8701 5.10854C28.1577 5.42215 28.309 5.83718 28.2906 6.26233C28.2723 6.68748 28.0858 7.08792 27.7722 7.37557C27.4586 7.66322 27.0436 7.81451 26.6184 7.79615C26.1933 7.7778 25.7928 7.59131 25.5052 7.2777C25.2566 7.00665 24.9965 6.7465 24.7254 6.49796C24.57 6.35565 24.4442 6.18412 24.3551 5.99316C24.266 5.80221 24.2154 5.59557 24.2061 5.38505C24.1969 5.17453 24.2292 4.96426 24.3012 4.76623C24.3733 4.5682 24.4836 4.38471 24.626 4.22933ZM14.4396 6.3295C14.8651 6.3295 15.2732 6.49853 15.5741 6.79942C15.875 7.1003 16.044 7.50839 16.044 7.9339V15.9559H20.8572C21.2827 15.9559 21.6908 16.125 21.9917 16.4259C22.2926 16.7267 22.4616 17.1348 22.4616 17.5603C22.4616 17.9859 22.2926 18.3939 21.9917 18.6948C21.6908 18.9957 21.2827 19.1647 20.8572 19.1647H14.4396C14.0141 19.1647 13.606 18.9957 13.3051 18.6948C13.0043 18.3939 12.8352 17.9859 12.8352 17.5603V7.9339C12.8352 7.50839 13.0043 7.1003 13.3051 6.79942C13.606 6.49853 14.0141 6.3295 14.4396 6.3295ZM28.783 8.93345C29.1768 8.77243 29.6184 8.77444 30.0108 8.93901C30.4031 9.10359 30.714 9.41727 30.8751 9.81106C31.1026 10.368 31.2981 10.9374 31.4607 11.5165C31.524 11.7212 31.5456 11.9365 31.5244 12.1497C31.5031 12.3629 31.4393 12.5697 31.3369 12.7578C31.2344 12.946 31.0953 13.1117 30.9277 13.2452C30.7601 13.3787 30.5675 13.4773 30.3612 13.5352C30.1549 13.5931 29.9392 13.609 29.7266 13.5821C29.514 13.5553 29.309 13.4861 29.1236 13.3787C28.9383 13.2713 28.7763 13.1278 28.6472 12.9568C28.5182 12.7858 28.4247 12.5907 28.3722 12.3829C28.2424 11.922 28.0865 11.4689 27.9054 11.0256C27.7443 10.632 27.746 10.1905 27.9103 9.79819C28.0746 9.40588 28.3879 9.09485 28.7814 8.93345" fill="white"/>
</svg>
