<svg width="29" height="33" viewBox="0 0 29 33" fill="none" xmlns="http://www.w3.org/2000/svg">
<path d="M12.8409 3.20939C13.2124 3.16243 13.5525 2.94885 13.7862 2.61563C14.0198 2.28241 14.128 1.85683 14.0869 1.43254C14.0458 1.00824 13.8587 0.619979 13.5669 0.353158C13.2751 0.0863372 12.9024 -0.0371825 12.5308 0.00977175C5.48027 0.899806 0 7.72072 0 16.0063C0 24.8953 6.31049 32.1009 14.0953 32.1009C21.3488 32.1009 27.321 25.8449 28.1047 17.8008C28.146 17.3765 28.038 16.9509 27.8045 16.6175C27.5709 16.2841 27.231 16.0703 26.8594 16.0232C26.4878 15.976 26.115 16.0993 25.8231 16.366C25.5311 16.6326 25.3439 17.0208 25.3026 17.4451C24.9779 20.7125 23.5709 23.7143 21.37 25.835C19.1691 27.9557 16.341 29.0347 13.4657 28.8507C10.5903 28.6667 7.88557 27.2336 5.90597 24.8454C3.92637 22.4571 2.82192 19.2946 2.81907 16.0063C2.81915 12.8393 3.84125 9.78352 5.69003 7.4228C7.53881 5.06209 10.0846 3.56206 12.8409 3.20939ZM17.9955 0.540895C17.6393 0.438265 17.262 0.498515 16.9441 0.70881C16.6262 0.919106 16.3928 1.26283 16.2936 1.66675C16.1943 2.07067 16.2371 2.50288 16.4129 2.87129C16.5886 3.2397 16.8834 3.51521 17.2344 3.63912C17.6389 3.76948 18.0364 3.9256 18.4212 4.10586C18.7674 4.26743 19.1556 4.26535 19.5004 4.1001C19.8452 3.93485 20.1185 3.61995 20.2599 3.22468C20.4014 2.82941 20.3996 2.38615 20.2549 1.99241C20.1102 1.59866 19.8344 1.2867 19.4882 1.12513C19.0008 0.898127 18.5024 0.703065 17.9955 0.540895ZM21.6349 4.24267C21.7602 4.08699 21.911 3.96101 22.0789 3.8719C22.2467 3.7828 22.4283 3.73232 22.6133 3.72336C22.7982 3.71439 22.9829 3.74711 23.1568 3.81964C23.3306 3.89218 23.4903 4.00311 23.6266 4.1461C23.9254 4.45833 24.2116 4.78506 24.485 5.12465C24.7377 5.43925 24.8707 5.85558 24.8545 6.28207C24.8384 6.70857 24.6746 7.11027 24.399 7.39883C24.1235 7.68738 23.7589 7.83915 23.3854 7.82074C23.0119 7.80232 22.6601 7.61524 22.4074 7.30065C22.189 7.02875 21.9605 6.76777 21.7223 6.51845C21.5858 6.37569 21.4752 6.20362 21.397 6.01206C21.3187 5.8205 21.2742 5.61322 21.2661 5.40203C21.258 5.19085 21.2864 4.97991 21.3497 4.78126C21.413 4.58261 21.5099 4.39853 21.6349 4.24267ZM12.6858 6.34946C13.0596 6.34946 13.4182 6.51903 13.6825 6.82086C13.9468 7.12269 14.0953 7.53207 14.0953 7.95892V16.0063H18.324C18.6978 16.0063 19.0563 16.1758 19.3206 16.4777C19.585 16.7795 19.7335 17.1889 19.7335 17.6157C19.7335 18.0426 19.585 18.4519 19.3206 18.7538C19.0563 19.0556 18.6978 19.2252 18.324 19.2252H12.6858C12.312 19.2252 11.9535 19.0556 11.6891 18.7538C11.4248 18.4519 11.2763 18.0426 11.2763 17.6157V7.95892C11.2763 7.53207 11.4248 7.12269 11.6891 6.82086C11.9535 6.51903 12.312 6.34946 12.6858 6.34946ZM25.2871 8.96162C25.633 8.8001 26.021 8.8021 26.3657 8.9672C26.7104 9.1323 26.9836 9.44697 27.1251 9.842C27.3249 10.4006 27.4967 10.9719 27.6396 11.5529C27.6952 11.7582 27.7142 11.9742 27.6955 12.188C27.6768 12.4019 27.6208 12.6093 27.5308 12.7981C27.4407 12.9868 27.3185 13.1531 27.1713 13.287C27.0241 13.4209 26.8549 13.5198 26.6736 13.5779C26.4924 13.6359 26.3028 13.6519 26.1161 13.625C25.9293 13.598 25.7492 13.5286 25.5863 13.4209C25.4235 13.3131 25.2812 13.1692 25.1678 12.9977C25.0544 12.8261 24.9723 12.6304 24.9262 12.422C24.8121 11.9596 24.6752 11.505 24.516 11.0604C24.3745 10.6655 24.3761 10.2226 24.5204 9.82909C24.6647 9.43554 24.9399 9.12353 25.2856 8.96162" fill="black"/>
</svg>
