<svg width="34" height="34" viewBox="0 0 34 34" fill="none" xmlns="http://www.w3.org/2000/svg">
<mask id="path-1-outside-1_76_402" maskUnits="userSpaceOnUse" x="0" y="0" width="34" height="34" fill="black">
<rect fill="white" width="34" height="34"/>
<path d="M15.6161 4.1993C16.0391 4.15249 16.4261 3.93958 16.6921 3.60741C16.9581 3.27523 17.0812 2.851 17.0344 2.42804C16.9876 2.00507 16.7747 1.61803 16.4425 1.35205C16.1103 1.08607 15.6861 0.962934 15.2631 1.00974C7.23792 1.89698 1 8.69645 1 16.9559C1 25.8171 8.18291 33 17.044 33C25.3003 33 32.0981 26.7637 32.9902 18.7448C33.0372 18.3219 32.9143 17.8976 32.6484 17.5652C32.3826 17.2329 31.9956 17.0198 31.5727 16.9728C31.1497 16.9258 30.7254 17.0487 30.3931 17.3145C30.0608 17.5804 29.8476 17.9673 29.8006 18.3903C29.4311 21.6474 27.8296 24.6397 25.3244 26.7538C22.8192 28.8678 19.6001 29.9434 16.3273 29.76C13.0544 29.5766 9.97574 28.148 7.72246 25.7673C5.46918 23.3865 4.21204 20.2339 4.2088 16.9559C4.2089 13.799 5.3723 10.7528 7.47667 8.39947C9.58104 6.04618 12.4788 4.55086 15.6161 4.1993ZM21.4834 1.53919C21.0779 1.43689 20.6485 1.49695 20.2866 1.70658C19.9248 1.91622 19.6591 2.25886 19.5461 2.66151C19.4332 3.06416 19.4819 3.49501 19.6819 3.86226C19.882 4.22952 20.2175 4.50416 20.617 4.62768C21.0775 4.75763 21.5299 4.91326 21.9679 5.09295C22.362 5.25401 22.8038 5.25195 23.1963 5.08721C23.5888 4.92248 23.8998 4.60857 24.0609 4.21454C24.2219 3.82052 24.2199 3.37865 24.0551 2.98614C23.8904 2.59364 23.5765 2.28265 23.1825 2.12159C22.6276 1.8953 22.0604 1.70085 21.4834 1.53919ZM25.626 5.22933C25.7685 5.07415 25.9402 4.94856 26.1313 4.85973C26.3223 4.77091 26.529 4.72059 26.7395 4.71165C26.9501 4.70271 27.1603 4.73533 27.3582 4.80763C27.5561 4.87994 27.7378 4.99052 27.893 5.13307C28.2331 5.44432 28.5588 5.77001 28.8701 6.10854C29.1577 6.42215 29.309 6.83718 29.2907 7.26233C29.2723 7.68748 29.0858 8.08792 28.7722 8.37557C28.4586 8.66322 28.0436 8.81451 27.6184 8.79615C27.1933 8.7778 26.7928 8.59131 26.5052 8.2777C26.2566 8.00665 25.9965 7.7465 25.7254 7.49796C25.57 7.35565 25.4442 7.18412 25.3551 6.99316C25.266 6.80221 25.2154 6.59557 25.2061 6.38505C25.1969 6.17453 25.2292 5.96426 25.3012 5.76623C25.3733 5.5682 25.4836 5.38471 25.626 5.22933ZM15.4396 7.3295C15.8651 7.3295 16.2732 7.49853 16.5741 7.79942C16.875 8.1003 17.044 8.50839 17.044 8.9339V16.9559H21.8572C22.2827 16.9559 22.6908 17.125 22.9917 17.4259C23.2926 17.7267 23.4616 18.1348 23.4616 18.5603C23.4616 18.9859 23.2926 19.3939 22.9917 19.6948C22.6908 19.9957 22.2827 20.1647 21.8572 20.1647H15.4396C15.0141 20.1647 14.606 19.9957 14.3051 19.6948C14.0043 19.3939 13.8352 18.9859 13.8352 18.5603V8.9339C13.8352 8.50839 14.0043 8.1003 14.3051 7.79942C14.606 7.49853 15.0141 7.3295 15.4396 7.3295ZM29.783 9.93345C30.1768 9.77243 30.6184 9.77443 31.0108 9.93901C31.4031 10.1036 31.714 10.4173 31.8751 10.8111C32.1026 11.368 32.2981 11.9374 32.4607 12.5165C32.524 12.7212 32.5456 12.9365 32.5244 13.1497C32.5031 13.3629 32.4393 13.5697 32.3369 13.7578C32.2344 13.946 32.0953 14.1117 31.9277 14.2452C31.7601 14.3787 31.5675 14.4773 31.3612 14.5352C31.1549 14.5931 30.9392 14.609 30.7266 14.5821C30.514 14.5553 30.309 14.4861 30.1236 14.3787C29.9383 14.2713 29.7763 14.1278 29.6472 13.9568C29.5182 13.7858 29.4247 13.5907 29.3722 13.3829C29.2424 12.922 29.0865 12.4689 28.9054 12.0256C28.7443 11.632 28.746 11.1905 28.9103 10.7982C29.0746 10.4059 29.3879 10.0948 29.7814 9.93345"/>
</mask>
<path d="M15.6161 4.1993C16.0391 4.15249 16.4261 3.93958 16.6921 3.60741C16.9581 3.27523 17.0812 2.851 17.0344 2.42804C16.9876 2.00507 16.7747 1.61803 16.4425 1.35205C16.1103 1.08607 15.6861 0.962934 15.2631 1.00974C7.23792 1.89698 1 8.69645 1 16.9559C1 25.8171 8.18291 33 17.044 33C25.3003 33 32.0981 26.7637 32.9902 18.7448C33.0372 18.3219 32.9143 17.8976 32.6484 17.5652C32.3826 17.2329 31.9956 17.0198 31.5727 16.9728C31.1497 16.9258 30.7254 17.0487 30.3931 17.3145C30.0608 17.5804 29.8476 17.9673 29.8006 18.3903C29.4311 21.6474 27.8296 24.6397 25.3244 26.7538C22.8192 28.8678 19.6001 29.9434 16.3273 29.76C13.0544 29.5766 9.97574 28.148 7.72246 25.7673C5.46918 23.3865 4.21204 20.2339 4.2088 16.9559C4.2089 13.799 5.3723 10.7528 7.47667 8.39947C9.58104 6.04618 12.4788 4.55086 15.6161 4.1993ZM21.4834 1.53919C21.0779 1.43689 20.6485 1.49695 20.2866 1.70658C19.9248 1.91622 19.6591 2.25886 19.5461 2.66151C19.4332 3.06416 19.4819 3.49501 19.6819 3.86226C19.882 4.22952 20.2175 4.50416 20.617 4.62768C21.0775 4.75763 21.5299 4.91326 21.9679 5.09295C22.362 5.25401 22.8038 5.25195 23.1963 5.08721C23.5888 4.92248 23.8998 4.60857 24.0609 4.21454C24.2219 3.82052 24.2199 3.37865 24.0551 2.98614C23.8904 2.59364 23.5765 2.28265 23.1825 2.12159C22.6276 1.8953 22.0604 1.70085 21.4834 1.53919ZM25.626 5.22933C25.7685 5.07415 25.9402 4.94856 26.1313 4.85973C26.3223 4.77091 26.529 4.72059 26.7395 4.71165C26.9501 4.70271 27.1603 4.73533 27.3582 4.80763C27.5561 4.87994 27.7378 4.99052 27.893 5.13307C28.2331 5.44432 28.5588 5.77001 28.8701 6.10854C29.1577 6.42215 29.309 6.83718 29.2907 7.26233C29.2723 7.68748 29.0858 8.08792 28.7722 8.37557C28.4586 8.66322 28.0436 8.81451 27.6184 8.79615C27.1933 8.7778 26.7928 8.59131 26.5052 8.2777C26.2566 8.00665 25.9965 7.7465 25.7254 7.49796C25.57 7.35565 25.4442 7.18412 25.3551 6.99316C25.266 6.80221 25.2154 6.59557 25.2061 6.38505C25.1969 6.17453 25.2292 5.96426 25.3012 5.76623C25.3733 5.5682 25.4836 5.38471 25.626 5.22933ZM15.4396 7.3295C15.8651 7.3295 16.2732 7.49853 16.5741 7.79942C16.875 8.1003 17.044 8.50839 17.044 8.9339V16.9559H21.8572C22.2827 16.9559 22.6908 17.125 22.9917 17.4259C23.2926 17.7267 23.4616 18.1348 23.4616 18.5603C23.4616 18.9859 23.2926 19.3939 22.9917 19.6948C22.6908 19.9957 22.2827 20.1647 21.8572 20.1647H15.4396C15.0141 20.1647 14.606 19.9957 14.3051 19.6948C14.0043 19.3939 13.8352 18.9859 13.8352 18.5603V8.9339C13.8352 8.50839 14.0043 8.1003 14.3051 7.79942C14.606 7.49853 15.0141 7.3295 15.4396 7.3295ZM29.783 9.93345C30.1768 9.77243 30.6184 9.77443 31.0108 9.93901C31.4031 10.1036 31.714 10.4173 31.8751 10.8111C32.1026 11.368 32.2981 11.9374 32.4607 12.5165C32.524 12.7212 32.5456 12.9365 32.5244 13.1497C32.5031 13.3629 32.4393 13.5697 32.3369 13.7578C32.2344 13.946 32.0953 14.1117 31.9277 14.2452C31.7601 14.3787 31.5675 14.4773 31.3612 14.5352C31.1549 14.5931 30.9392 14.609 30.7266 14.5821C30.514 14.5553 30.309 14.4861 30.1236 14.3787C29.9383 14.2713 29.7763 14.1278 29.6472 13.9568C29.5182 13.7858 29.4247 13.5907 29.3722 13.3829C29.2424 12.922 29.0865 12.4689 28.9054 12.0256C28.7443 11.632 28.746 11.1905 28.9103 10.7982C29.0746 10.4059 29.3879 10.0948 29.7814 9.93345" fill="white"/>
<path d="M15.6161 4.1993L15.5061 3.20537L15.5047 3.20552L15.6161 4.1993ZM15.2631 1.00974L15.373 2.00369L15.3731 2.00367L15.2631 1.00974ZM32.9902 18.7448L33.984 18.8554L33.984 18.8553L32.9902 18.7448ZM29.8006 18.3903L30.7943 18.503L30.7945 18.5008L29.8006 18.3903ZM4.2088 16.9559L3.2088 16.9559L3.2088 16.9569L4.2088 16.9559ZM21.4834 1.53919L21.7532 0.576278L21.7407 0.572766L21.728 0.569581L21.4834 1.53919ZM20.617 4.62768L20.3217 5.58306L20.3335 5.58672L20.3454 5.59008L20.617 4.62768ZM21.9679 5.09295L21.5884 6.01812L21.5896 6.01861L21.9679 5.09295ZM23.1825 2.12159L23.5608 1.19594L23.5601 1.19565L23.1825 2.12159ZM25.626 5.22933L24.8895 4.55289L24.8886 4.55382L25.626 5.22933ZM27.893 5.13307L27.2165 5.86951L27.2179 5.8708L27.893 5.13307ZM28.8701 6.10854L29.607 5.43259L29.6062 5.43172L28.8701 6.10854ZM26.5052 8.2777L25.7681 8.95354L25.7682 8.95365L26.5052 8.2777ZM25.7254 7.49796L26.4013 6.76091L26.4008 6.76047L25.7254 7.49796ZM15.4396 7.3295V8.3295V7.3295ZM17.044 16.9559H16.044V17.9559H17.044V16.9559ZM31.8751 10.8111L32.8009 10.4329L32.8007 10.4324L31.8751 10.8111ZM32.4607 12.5165L31.4979 12.7868L31.5015 12.7994L31.5053 12.8119L32.4607 12.5165ZM29.3722 13.3829L30.3419 13.1383L30.3385 13.125L30.3348 13.1117L29.3722 13.3829ZM28.9054 12.0256L29.831 11.6473L29.8308 11.6468L28.9054 12.0256ZM15.7261 5.19323C16.4127 5.11725 17.0409 4.77165 17.4727 4.23245L15.9115 2.98237C15.8113 3.10752 15.6655 3.18773 15.5061 3.20537L15.7261 5.19323ZM17.4727 4.23245C17.9044 3.69324 18.1043 3.00461 18.0283 2.31804L16.0405 2.53803C16.0581 2.69738 16.0117 2.85722 15.9115 2.98237L17.4727 4.23245ZM18.0283 2.31804C17.9523 1.63147 17.6067 1.00321 17.0675 0.571456L15.8175 2.13264C15.9426 2.23285 16.0228 2.37867 16.0405 2.53803L18.0283 2.31804ZM17.0675 0.571456C16.5283 0.139703 15.8397 -0.0601701 15.1531 0.0158087L15.3731 2.00367C15.5325 1.98604 15.6923 2.03243 15.8175 2.13264L17.0675 0.571456ZM15.1532 0.0157969C6.62706 0.958419 0 8.18098 0 16.9559H2C2 9.21192 7.84877 2.83554 15.373 2.00369L15.1532 0.0157969ZM0 16.9559C0 26.3694 7.63062 34 17.044 34V32C8.7352 32 2 25.2648 2 16.9559H0ZM17.044 34C25.8157 34 33.0363 27.3747 33.984 18.8554L31.9963 18.6343C31.1599 26.1527 24.7848 32 17.044 32V34ZM33.984 18.8553C34.0604 18.1688 33.8608 17.48 33.4293 16.9406L31.8675 18.1899C31.9677 18.3151 32.014 18.475 31.9963 18.6344L33.984 18.8553ZM33.4293 16.9406C32.9978 16.4012 32.3697 16.0552 31.6832 15.9789L31.4622 17.9667C31.6216 17.9844 31.7674 18.0647 31.8675 18.1899L33.4293 16.9406ZM31.6832 15.9789C30.9966 15.9026 30.3079 16.1021 29.7684 16.5336L31.0177 18.0954C31.1429 17.9953 31.3028 17.9489 31.4622 17.9667L31.6832 15.9789ZM29.7684 16.5336C29.229 16.9651 28.8831 17.5932 28.8067 18.2798L30.7945 18.5008C30.8122 18.3414 30.8925 18.1956 31.0177 18.0954L29.7684 16.5336ZM28.807 18.2776C28.4663 21.2809 26.9895 24.0402 24.6794 25.9895L25.9693 27.518C28.6697 25.2393 30.396 22.0138 30.7942 18.503L28.807 18.2776ZM24.6794 25.9895C22.3694 27.9389 19.4011 28.9307 16.3832 28.7616L16.2713 30.7584C19.7991 30.9561 23.2689 29.7968 25.9693 27.518L24.6794 25.9895ZM16.3832 28.7616C13.3653 28.5924 10.5265 27.2752 8.44875 25.0799L6.99618 26.4547C9.42499 29.0209 12.7435 30.5607 16.2713 30.7584L16.3832 28.7616ZM8.44875 25.0799C6.371 22.8846 5.21179 19.9776 5.2088 16.9549L3.2088 16.9569C3.2123 20.4903 4.56737 23.8884 6.99618 26.4547L8.44875 25.0799ZM5.2088 16.956C5.20889 14.0449 6.28167 11.236 8.2221 9.06605L6.73124 7.73289C4.46294 10.2695 3.2089 13.553 3.2088 16.9559L5.2088 16.956ZM8.2221 9.06605C10.1625 6.89609 12.8346 5.51726 15.7275 5.19308L15.5047 3.20552C12.123 3.58447 8.99954 5.19628 6.73124 7.73289L8.2221 9.06605ZM21.728 0.569581C21.0698 0.403506 20.3728 0.501002 19.7854 0.841298L20.7879 2.57187C20.9242 2.49289 21.086 2.47027 21.2388 2.50881L21.728 0.569581ZM19.7854 0.841298C19.198 1.1816 18.7666 1.7378 18.5833 2.39142L20.509 2.9316C20.5515 2.77992 20.6516 2.65084 20.7879 2.57187L19.7854 0.841298ZM18.5833 2.39142C18.3999 3.04504 18.479 3.74442 18.8037 4.34058L20.5601 3.38395C20.4848 3.2456 20.4664 3.08329 20.509 2.9316L18.5833 2.39142ZM18.8037 4.34058C19.1285 4.93674 19.6731 5.38256 20.3217 5.58306L20.9124 3.67229C20.7619 3.62576 20.6355 3.5223 20.5601 3.38395L18.8037 4.34058ZM20.3454 5.59008C20.77 5.70991 21.1864 5.85319 21.5884 6.01812L22.3475 4.16779C21.8735 3.97333 21.385 3.80536 20.8886 3.66527L20.3454 5.59008ZM21.5896 6.01861C22.2291 6.28002 22.9463 6.27667 23.5833 6.00929L22.8093 4.16513C22.6614 4.22723 22.4948 4.22801 22.3463 4.1673L21.5896 6.01861ZM23.5833 6.00929C24.2204 5.74192 24.7251 5.23243 24.9865 4.5929L23.1352 3.83618C23.0745 3.98471 22.9573 4.10304 22.8093 4.16513L23.5833 6.00929ZM24.9865 4.5929C25.2479 3.95337 25.2446 3.2362 24.9772 2.59915L23.133 3.37314C23.1951 3.5211 23.1959 3.68766 23.1352 3.83618L24.9865 4.5929ZM24.9772 2.59915C24.7098 1.96209 24.2004 1.45734 23.5608 1.19594L22.8041 3.04725C22.9526 3.10796 23.071 3.22519 23.133 3.37314L24.9772 2.59915ZM23.5601 1.19565C22.9701 0.954994 22.3668 0.748201 21.7532 0.576278L21.2136 2.50211C21.7539 2.65351 22.2852 2.83561 22.8048 3.04754L23.5601 1.19565ZM26.3625 5.90577C26.4162 5.84731 26.4808 5.8 26.5528 5.76654L25.7097 3.95293C25.3996 4.09712 25.1208 4.30098 24.8895 4.55289L26.3625 5.90577ZM26.5528 5.76654C26.6248 5.73308 26.7027 5.71412 26.782 5.71075L26.6971 3.71255C26.3554 3.72706 26.0199 3.80874 25.7097 3.95293L26.5528 5.76654ZM26.782 5.71075C26.8613 5.70738 26.9405 5.71967 27.015 5.74691L27.7013 3.86836C27.3801 3.75099 27.0388 3.69804 26.6971 3.71255L26.782 5.71075ZM27.015 5.74691C27.0896 5.77415 27.158 5.8158 27.2165 5.8695L28.5695 4.39663C28.3176 4.16524 28.0226 3.98573 27.7013 3.86836L27.015 5.74691ZM27.2179 5.8708C27.5363 6.16214 27.8416 6.46746 28.1339 6.78537L29.6062 5.43172C29.276 5.07257 28.93 4.7265 28.5681 4.39533L27.2179 5.8708ZM28.1331 6.78449C28.2415 6.90265 28.2985 7.05902 28.2916 7.2192L30.2897 7.30546C30.3195 6.61534 30.0739 5.94165 29.607 5.43259L28.1331 6.78449ZM28.2916 7.2192C28.2847 7.37937 28.2144 7.53025 28.0962 7.63862L29.4482 9.11252C29.9572 8.6456 30.2599 7.99558 30.2897 7.30546L28.2916 7.2192ZM28.0962 7.63862C27.9781 7.747 27.8217 7.804 27.6616 7.79708L27.5753 9.79522C28.2654 9.82501 28.9391 9.57944 29.4482 9.11252L28.0962 7.63862ZM27.6616 7.79708C27.5014 7.79017 27.3505 7.7199 27.2421 7.60175L25.7682 8.95365C26.2352 9.46271 26.8852 9.76543 27.5753 9.79522L27.6616 7.79708ZM27.2422 7.60186C26.9742 7.30954 26.6936 7.02896 26.4013 6.76091L25.0496 8.23501C25.2994 8.46404 25.5391 8.70377 25.7681 8.95354L27.2422 7.60186ZM26.4008 6.76047C26.3423 6.70686 26.2948 6.64224 26.2613 6.5703L24.4489 7.41602C24.5935 7.72599 24.7978 8.00444 25.0501 8.23545L26.4008 6.76047ZM26.2613 6.5703C26.2277 6.49836 26.2086 6.42051 26.2052 6.34122L24.2071 6.42889C24.2221 6.77063 24.3042 7.10606 24.4489 7.41602L26.2613 6.5703ZM26.2052 6.34122C26.2017 6.26191 26.2139 6.1827 26.241 6.10809L24.3615 5.42437C24.2446 5.74582 24.1921 6.08715 24.2071 6.42889L26.2052 6.34122ZM26.241 6.10809C26.2691 6.03096 26.3115 5.9614 26.3633 5.90483L24.8886 4.55382C24.6557 4.80801 24.4775 5.10545 24.3615 5.42437L26.241 6.10809ZM15.4396 8.3295C15.5999 8.3295 15.7536 8.39317 15.867 8.50652L17.2812 7.09231C16.7928 6.60389 16.1304 6.3295 15.4396 6.3295V8.3295ZM15.867 8.50652C15.9803 8.61987 16.044 8.7736 16.044 8.9339H18.044C18.044 8.24317 17.7696 7.58073 17.2812 7.09231L15.867 8.50652ZM16.044 8.9339V16.9559H18.044V8.9339H16.044ZM17.044 17.9559H21.8572V15.9559H17.044V17.9559ZM21.8572 17.9559C22.0175 17.9559 22.1713 18.0196 22.2846 18.133L23.6988 16.7187C23.2104 16.2303 22.548 15.9559 21.8572 15.9559V17.9559ZM22.2846 18.133C22.398 18.2463 22.4616 18.4 22.4616 18.5603H24.4616C24.4616 17.8696 24.1872 17.2072 23.6988 16.7187L22.2846 18.133ZM22.4616 18.5603C22.4616 18.7206 22.398 18.8744 22.2846 18.9877L23.6988 20.4019C24.1872 19.9135 24.4616 19.2511 24.4616 18.5603H22.4616ZM22.2846 18.9877C22.1713 19.1011 22.0175 19.1647 21.8572 19.1647V21.1647C22.548 21.1647 23.2104 20.8904 23.6988 20.4019L22.2846 18.9877ZM21.8572 19.1647H15.4396V21.1647H21.8572V19.1647ZM15.4396 19.1647C15.2793 19.1647 15.1256 19.1011 15.0122 18.9877L13.598 20.4019C14.0864 20.8904 14.7489 21.1647 15.4396 21.1647V19.1647ZM15.0122 18.9877C14.8989 18.8744 14.8352 18.7206 14.8352 18.5603H12.8352C12.8352 19.2511 13.1096 19.9135 13.598 20.4019L15.0122 18.9877ZM14.8352 18.5603V8.9339H12.8352V18.5603H14.8352ZM14.8352 8.9339C14.8352 8.7736 14.8989 8.61987 15.0122 8.50652L13.598 7.09231C13.1096 7.58073 12.8352 8.24317 12.8352 8.9339H14.8352ZM15.0122 8.50652C15.1256 8.39317 15.2793 8.3295 15.4396 8.3295L15.4396 6.3295C14.7489 6.3295 14.0864 6.60389 13.598 7.09231L15.0122 8.50652ZM30.1614 10.8591C30.3098 10.7984 30.4762 10.7992 30.624 10.8612L31.3976 9.01686C30.7607 8.7497 30.0438 8.74645 29.4045 9.00783L30.1614 10.8591ZM30.624 10.8612C30.7718 10.9232 30.8889 11.0413 30.9496 11.1897L32.8007 10.4324C32.5392 9.79321 32.0345 9.28402 31.3976 9.01686L30.624 10.8612ZM30.9494 11.1892C31.1625 11.7109 31.3456 12.2443 31.4979 12.7868L33.4235 12.2462C33.2506 11.6304 33.0427 11.025 32.8009 10.4329L30.9494 11.1892ZM31.5053 12.8119C31.5292 12.889 31.5373 12.9701 31.5293 13.0504L33.5194 13.249C33.554 12.9029 33.5188 12.5535 33.4161 12.2212L31.5053 12.8119ZM31.5293 13.0504C31.5213 13.1307 31.4973 13.2086 31.4587 13.2795L33.2151 14.2362C33.3814 13.9307 33.4849 13.5951 33.5194 13.249L31.5293 13.0504ZM31.4587 13.2795C31.4201 13.3504 31.3677 13.4128 31.3045 13.4631L32.5509 15.0273C32.8229 14.8106 33.0487 14.5416 33.2151 14.2362L31.4587 13.2795ZM31.3045 13.4631C31.2414 13.5134 31.1689 13.5506 31.0911 13.5724L31.6313 15.498C31.9662 15.4041 32.2789 15.244 32.5509 15.0273L31.3045 13.4631ZM31.0911 13.5724C31.0134 13.5942 30.9321 13.6002 30.8521 13.5901L30.6011 15.5742C30.9462 15.6179 31.2965 15.592 31.6313 15.498L31.0911 13.5724ZM30.8521 13.5901C30.772 13.5799 30.6948 13.5539 30.6249 13.5134L29.6224 15.244C29.9233 15.4183 30.2561 15.5306 30.6011 15.5742L30.8521 13.5901ZM30.6249 13.5134C30.5551 13.4729 30.4941 13.4189 30.4454 13.3545L28.849 14.5592C29.0585 14.8368 29.3214 15.0696 29.6224 15.244L30.6249 13.5134ZM30.4454 13.3545C30.3968 13.2901 30.3616 13.2165 30.3419 13.1383L28.4026 13.6276C28.4877 13.9648 28.6395 14.2815 28.849 14.5592L30.4454 13.3545ZM30.3348 13.1117C30.1947 12.6145 30.0265 12.1255 29.831 11.6473L27.9797 12.4039C28.1465 12.8122 28.2901 13.2296 28.4097 13.6541L30.3348 13.1117ZM29.8308 11.6468C29.7702 11.4985 29.7708 11.3322 29.8327 11.1844L27.9879 10.412C27.7212 11.0488 27.7184 11.7654 27.9799 12.4044L29.8308 11.6468ZM29.8327 11.1844C29.8946 11.0366 30.0126 10.9194 30.1608 10.8586L29.4019 9.00825C28.7631 9.27024 28.2545 9.77514 27.9879 10.412L29.8327 11.1844Z" fill="white" mask="url(#path-1-outside-1_76_402)"/>
</svg>
