<svg width="33" height="32" viewBox="0 0 33 32" fill="none" xmlns="http://www.w3.org/2000/svg">
<path fill-rule="evenodd" clip-rule="evenodd" d="M22.4957 1.48392C22.914 -0.486755 25.6363 -0.498556 26.0705 1.47212L26.0934 1.56652L26.1323 1.74825C26.6351 3.95257 28.3608 5.63768 30.5254 6.02473C32.5185 6.38346 32.5185 9.3383 30.5254 9.69703C29.4621 9.88812 28.4772 10.3993 27.6944 11.1665C26.9116 11.9336 26.3657 12.9225 26.1254 14.0089L26.0705 14.252C25.6363 16.2203 22.9163 16.2109 22.4957 14.2355L22.45 14.0278C22.219 12.9379 21.6789 11.9437 20.8985 11.1719C20.1181 10.4002 19.1328 9.88593 18.0683 9.69467C16.0797 9.33594 16.0797 6.38583 18.0683 6.02945C19.13 5.83908 20.1131 5.3274 20.8927 4.55932C21.6724 3.79123 22.2136 2.80134 22.4477 1.71521L22.4797 1.56416L22.4957 1.48392ZM20.0248 14.5777C19.9006 13.9882 19.61 13.4499 19.1898 13.0307C18.7696 12.6115 18.2386 12.3302 17.6637 12.2223V29.2504C18.4189 30.2591 19.424 31.0383 20.5727 31.5058C21.7215 31.9733 22.9713 32.1115 24.1899 31.906C25.4085 31.7005 26.5507 31.1588 27.4957 30.3382C28.4407 29.5177 29.1534 28.4487 29.5585 27.2443C28.9498 27.1824 28.3518 27.0372 27.7803 26.8124C26.4202 26.2837 24.9414 25.2429 23.7277 23.4233C23.5128 23.101 23.4307 22.7037 23.4995 22.3188C23.5683 21.934 23.7823 21.5931 24.0945 21.3712C24.4067 21.1493 24.7915 21.0646 25.1642 21.1356C25.5369 21.2066 25.8671 21.4277 26.082 21.75C26.9551 23.0599 27.9563 23.7301 28.786 24.0511C29.2065 24.2163 29.5814 24.2871 29.874 24.3107L29.9265 24.3154C31.3437 22.7247 32.2351 19.6472 32.2351 17.077C32.2351 15.3447 31.8305 13.636 31.1311 12.1869L30.9505 12.2223C29.762 12.4347 28.8157 13.3646 28.5483 14.5777L28.4934 14.8184C27.4694 19.4607 21.0534 19.4324 20.0683 14.7807L20.0248 14.5777ZM14.8065 10.3697C14.3394 9.62137 14.091 8.74996 14.091 7.8597C14.091 6.96944 14.3394 6.09803 14.8065 5.34975V4.1225C14.0128 3.15922 12.952 2.47064 11.7672 2.14973C10.5824 1.82882 9.3308 1.89105 8.18136 2.32801C7.03192 2.76497 6.04004 3.55561 5.33964 4.59316C4.63925 5.63072 4.26409 6.86521 4.26482 8.12993V8.13465C4.35396 9.05509 4.71739 9.73951 5.13796 10.2351C5.66139 10.8511 6.21225 11.1036 6.34254 11.132C6.52564 11.1749 6.69876 11.2546 6.85201 11.3666C7.00526 11.4786 7.13565 11.6207 7.23572 11.7848C7.3358 11.9488 7.4036 12.1316 7.43526 12.3227C7.46693 12.5138 7.46182 12.7094 7.42025 12.8985C7.37868 13.0876 7.30145 13.2663 7.19297 13.4245C7.08449 13.5828 6.94689 13.7174 6.78802 13.8207C6.62916 13.9241 6.45213 13.9941 6.26706 14.0268C6.08199 14.0595 5.89249 14.0542 5.70939 14.0113C4.88654 13.8154 3.83511 13.1734 2.98939 12.1822C2.64671 11.7783 2.35275 11.3329 2.11396 10.8558C0.94825 12.5197 0.235107 14.7783 0.235107 17.077C0.235107 18.8117 0.641965 20.7776 1.33911 22.3589C1.52196 22.1465 1.72082 21.953 1.93339 21.783C2.07936 21.6528 2.24936 21.5545 2.43313 21.494C2.6169 21.4335 2.81064 21.412 3.00266 21.4309C3.19469 21.4497 3.38102 21.5086 3.55043 21.6038C3.71984 21.699 3.86881 21.8287 3.98837 21.985C4.10793 22.1413 4.19559 22.321 4.24607 22.5132C4.29655 22.7055 4.3088 22.9063 4.28209 23.1035C4.25538 23.3008 4.19026 23.4904 4.09066 23.661C3.99105 23.8315 3.85902 23.9795 3.70254 24.0959C3.29568 24.4287 2.87054 25.1438 2.60996 25.9722C2.80843 27.3435 3.39287 28.6244 4.29061 29.6555C5.18835 30.6866 6.35981 31.4226 7.65935 31.7719C8.95889 32.1212 10.3292 32.0684 11.5999 31.6201C12.8706 31.1718 13.9857 30.3477 14.8065 29.2504V20.5888C13.8871 21.3587 12.772 21.8381 11.5951 21.9695C11.4086 21.991 11.2197 21.9744 11.0394 21.9206C10.8591 21.8668 10.6907 21.7768 10.5441 21.6559C10.3974 21.5349 10.2753 21.3853 10.1846 21.2156C10.0939 21.0458 10.0365 20.8593 10.0157 20.6667C9.99482 20.4741 10.0109 20.2791 10.063 20.0929C10.1151 19.9067 10.2023 19.7329 10.3194 19.5815C10.4366 19.4301 10.5815 19.3039 10.7459 19.2103C10.9102 19.1167 11.0908 19.0574 11.2774 19.0359C12.4408 18.9037 13.2865 18.2122 13.89 17.3036C14.5025 16.3832 14.7677 15.373 14.8065 14.8892V10.3697Z" fill="white"/>
</svg>
