<svg width="216" height="208" viewBox="0 0 216 208" fill="none" xmlns="http://www.w3.org/2000/svg">
<path d="M196 48H168V20C168 14.6957 165.893 9.60859 162.142 5.85786C158.391 2.10714 153.304 0 148 0H20C14.6957 0 9.60859 2.10714 5.85786 5.85786C2.10714 9.60859 0 14.6957 0 20V148C0.00100587 150.265 0.642856 152.483 1.85137 154.398C3.05988 156.314 4.78571 157.848 6.8294 158.824C8.87309 159.799 11.1512 160.177 13.4004 159.913C15.6497 159.648 17.7782 158.753 19.54 157.33L48 134.33V156C48 161.304 50.1071 166.391 53.8579 170.142C57.6086 173.893 62.6957 176 68 176H160.17L196.46 205.33C198.222 206.753 200.35 207.648 202.6 207.913C204.849 208.177 207.127 207.799 209.171 206.824C211.214 205.848 212.94 204.314 214.149 202.398C215.357 200.483 215.999 198.265 216 196V68C216 62.6957 213.893 57.6086 210.142 53.8579C206.391 50.1071 201.304 48 196 48ZM24 122.87V24H144V104H51.58C48.8216 103.992 46.1447 104.935 44 106.67L24 122.87ZM192 170.87L172 154.67C169.866 152.944 167.205 152.002 164.46 152H72V128H148C153.304 128 158.391 125.893 162.142 122.142C165.893 118.391 168 113.304 168 108V72H192V170.87Z" fill="white"/>
<path d="M196 48H168V20C168 14.6957 165.893 9.60859 162.142 5.85786C158.391 2.10714 153.304 0 148 0H20C14.6957 0 9.60859 2.10714 5.85786 5.85786C2.10714 9.60859 0 14.6957 0 20V148C0.00100587 150.265 0.642856 152.483 1.85137 154.398C3.05988 156.314 4.78571 157.848 6.8294 158.824C8.87309 159.799 11.1512 160.177 13.4004 159.913C15.6497 159.648 17.7782 158.753 19.54 157.33L48 134.33V156C48 161.304 50.1071 166.391 53.8579 170.142C57.6086 173.893 62.6957 176 68 176H160.17L196.46 205.33C198.222 206.753 200.35 207.648 202.6 207.913C204.849 208.177 207.127 207.799 209.171 206.824C211.214 205.848 212.94 204.314 214.149 202.398C215.357 200.483 215.999 198.265 216 196V68C216 62.6957 213.893 57.6086 210.142 53.8579C206.391 50.1071 201.304 48 196 48ZM24 122.87V24H144V104H51.58C48.8216 103.992 46.1447 104.935 44 106.67L24 122.87ZM192 170.87L172 154.67C169.866 152.944 167.205 152.002 164.46 152H72V128H148C153.304 128 158.391 125.893 162.142 122.142C165.893 118.391 168 113.304 168 108V72H192V170.87Z" stroke="white"/>
</svg>
