<svg width="85" height="85" viewBox="0 0 85 85" fill="none" xmlns="http://www.w3.org/2000/svg">
<path d="M75.0122 73.9622C78.1622 71.3372 84.4622 65.5622 84.4622 57.1622C84.4622 49.8122 78.1622 43.5122 69.7622 39.8372C72.3872 36.6872 73.9622 31.9622 73.9622 27.2372C73.9622 12.5372 58.7372 0.462189 39.3122 0.462189C20.9372 0.462189 0.462158 11.4872 0.462158 27.2372C0.462158 38.2622 8.86216 46.1372 12.5372 49.2872C12.0122 55.5872 9.38716 58.2122 9.38716 58.2122L3.08716 63.4622H10.9622C17.2622 63.4622 22.5122 61.8872 26.7122 59.7872C28.2872 69.7622 39.8372 77.6372 54.5372 77.6372H57.1622C60.3122 80.2622 66.6122 84.4622 75.5372 84.4622H82.8872L77.1122 79.7372C77.1122 79.7372 75.5372 78.1622 75.0122 73.9622ZM54.5372 72.3872C42.4622 72.3872 31.9622 65.5622 31.9622 57.6872V56.6372C33.0122 55.5872 34.0622 55.0622 34.5872 54.0122H38.2622C49.2872 54.0122 59.2622 50.3372 65.5622 44.0372C73.4372 46.6622 79.2122 51.9122 79.2122 57.1622C79.2122 62.4122 74.4872 67.6622 70.2872 70.2872L68.7122 71.3372V72.9122C68.7122 75.5372 69.7622 77.1122 70.2872 78.6872C65.0372 77.6372 61.3622 75.0122 60.3122 73.4372L59.7872 72.3872H54.5372ZM39.3122 5.71219C55.5872 5.71219 68.7122 15.6872 68.7122 27.2372C68.7122 38.7872 55.0622 48.7622 38.2622 48.7622H32.4872L31.9622 49.8122C30.3872 51.9122 24.0872 56.1122 15.6872 57.6872C16.2122 55.5872 16.2122 52.4372 16.2122 48.2372V46.6622C10.9622 42.4622 5.18716 35.1122 5.18716 27.7622C5.18716 16.2122 21.9872 5.71219 39.3122 5.71219Z" fill="#99CFFE"/>
</svg>
