<svg width="32" height="33" viewBox="0 0 32 33" fill="none" xmlns="http://www.w3.org/2000/svg">
<path fill-rule="evenodd" clip-rule="evenodd" d="M0 13.0978C0 7.06419 -2.51466e-07 4.04659 2.06023 2.17299C4.11871 0.29779 7.43406 0.297791 14.063 0.297791H17.5788C24.2077 0.297791 27.5231 0.29779 29.5816 2.17299C31.6418 4.04659 31.6418 7.06419 31.6418 13.0978V19.4978C31.6418 25.5314 31.6418 28.549 29.5816 30.4226C27.5231 32.2978 24.2077 32.2978 17.5788 32.2978H14.063C7.43406 32.2978 4.11871 32.2978 2.06023 30.4226C-2.51466e-07 28.549 0 25.5314 0 19.4978V13.0978ZM5.27363 16.2978C5.27363 14.0354 5.27363 12.9042 6.0471 12.2018C6.81705 11.4978 8.05987 11.4978 10.5473 11.4978H21.0945C23.5802 11.4978 24.823 11.4978 25.5947 12.2018C26.3682 12.9042 26.3682 14.0354 26.3682 16.2978V22.6978C26.3682 24.9602 26.3682 26.0914 25.5947 26.7938C24.823 27.4978 23.5802 27.4978 21.0945 27.4978H10.5473C8.06163 27.4978 6.81881 27.4978 6.0471 26.7938C5.27363 26.093 5.27363 24.9618 5.27363 22.6978V16.2978ZM7.03151 5.49779C6.68185 5.49779 6.3465 5.62422 6.09925 5.84926C5.852 6.07431 5.7131 6.37953 5.7131 6.69779C5.7131 7.01605 5.852 7.32128 6.09925 7.54632C6.3465 7.77136 6.68185 7.89779 7.03151 7.89779H15.8209C16.1706 7.89779 16.5059 7.77136 16.7531 7.54632C17.0004 7.32128 17.1393 7.01605 17.1393 6.69779C17.1393 6.37953 17.0004 6.07431 16.7531 5.84926C16.5059 5.62422 16.1706 5.49779 15.8209 5.49779H7.03151Z" fill="white"/>
</svg>
