<svg width="102" height="102" viewBox="0 0 102 102" fill="none" xmlns="http://www.w3.org/2000/svg">
<path opacity="0.5" d="M43.9268 83.3878L40.6297 85.868C37.692 88.0772 33.3674 86.2916 32.8404 82.6519L32.2535 78.5681C31.799 75.4029 31.5732 73.8167 30.6521 72.6144C29.7325 71.4086 28.2201 70.7548 25.1967 69.4436C20.7276 67.5103 18.0217 66.0702 16.0623 64.1121C14.2605 62.3143 12.8304 60.1793 11.8537 57.8289C10.8769 55.4785 10.3728 52.9587 10.3699 50.4135C10.3628 46.5607 12.0862 42.3865 15.5331 34.0382L17.0124 30.4552C21.8543 18.7282 24.276 12.8629 28.6948 9.6464C31.1664 7.84532 34.0292 6.65469 37.0491 6.17183C42.4496 5.31083 48.3185 7.73398 60.042 12.5744L70.7909 17.0124C82.518 21.8543 88.3833 24.2759 91.6033 28.6962C93.4029 31.1678 94.5923 34.03 95.0743 37.049C95.9353 42.4496 93.5122 48.3185 88.6718 60.042L87.1924 63.625C83.7456 71.9733 82.0221 76.1474 79.3026 78.8745C77.5043 80.6764 75.3687 82.1065 73.0176 83.083C70.6666 84.0594 68.1462 84.5632 65.6004 84.5654C62.8303 84.5708 59.8981 83.6788 55.3653 81.8996C52.2976 80.6959 50.7645 80.0923 49.262 80.2981C47.761 80.5003 46.4834 81.4616 43.9268 83.3878Z" fill="#FF3909"/>
<path d="M43.5899 57.3984C40.2821 51.9312 35.2866 42.0599 37.8799 35.779C41.8401 26.1874 52.1873 26.2657 56.3835 36.671C66.6983 32.2571 74.0868 39.5014 70.1266 49.093C67.5348 55.3704 57.0288 58.8456 50.8275 60.3867C48.7052 60.9154 47.6448 61.1779 46.466 60.6912C45.2872 60.2045 44.7209 59.2703 43.5899 57.3984Z" fill="#FF3909"/>
</svg>
