<svg width="32" height="33" viewBox="0 0 32 33" fill="none" xmlns="http://www.w3.org/2000/svg">
<path d="M24 28.9086H27.2V14.6863H17.6V28.9086H20.8V18.2419H24V28.9086ZM1.6 28.9086V2.24189C1.6 1.77039 1.76857 1.31821 2.06863 0.98481C2.36869 0.651412 2.77565 0.464111 3.2 0.464111H25.6C26.0243 0.464111 26.4313 0.651412 26.7314 0.98481C27.0314 1.31821 27.2 1.77039 27.2 2.24189V11.1308H30.4V28.9086H32V32.4641H0V28.9086H1.6ZM8 14.6863V18.2419H11.2V14.6863H8ZM8 21.7974V25.353H11.2V21.7974H8ZM8 7.57522V11.1308H11.2V7.57522H8Z" fill="white"/>
</svg>
