<svg width="84" height="81" viewBox="0 0 84 81" fill="none" xmlns="http://www.w3.org/2000/svg">
<path d="M1.22237 33.4197C0.978792 35.3684 0.816406 37.3495 0.816406 39.363C0.816406 57.063 10.5108 72.4734 24.8657 80.6414L27.545 74.9904V36.3914L24.5734 33.4197H1.22237ZM83.9577 36.3914C83.9577 33.4197 80.9861 30.4481 78.0144 30.4481H54.2574C55.7351 24.5048 57.2291 18.5777 57.2291 15.6061C57.2291 9.66276 54.2574 3.73569 52.7797 2.24175C52.7472 2.20927 51.302 0.764038 48.3304 0.764038C43.881 0.764038 43.881 5.2134 43.881 5.2134C43.881 5.29459 42.4033 12.6344 42.4033 15.6061C42.4033 18.5777 36.46 30.4481 33.4883 33.4197L30.5167 34.8974V76.4681L33.4883 77.9458H66.144C72.0873 77.9458 75.059 74.9742 75.059 72.0025C75.059 69.0309 72.0873 66.0592 69.1157 66.0592C75.059 66.0592 78.0307 63.0875 78.0307 60.1159C78.0307 57.1442 75.059 54.1726 72.0873 54.1726C78.0307 54.1726 81.0023 51.2009 81.0023 48.2293C81.0023 45.2576 78.0307 42.286 75.059 42.286C80.9861 42.3347 83.9577 39.363 83.9577 36.3914Z" fill="#29AB36"/>
</svg>
