<svg width="84" height="81" viewBox="0 0 84 81" fill="none" xmlns="http://www.w3.org/2000/svg">
<path d="M1.22237 33.4198C0.978792 35.3684 0.816406 37.3495 0.816406 39.3631C0.816406 57.0631 10.5108 72.4735 24.8657 80.6415L27.545 74.9905V36.3914L24.5734 33.4198H1.22237ZM83.9577 36.3914C83.9577 33.4198 80.9861 30.4481 78.0144 30.4481H54.2574C55.7351 24.5048 57.2291 18.5778 57.2291 15.6061C57.2291 9.66282 54.2574 3.73575 52.7797 2.24181C52.7472 2.20933 51.302 0.764099 48.3304 0.764099C43.881 0.764099 43.881 5.21346 43.881 5.21346C43.881 5.29465 42.4033 12.6345 42.4033 15.6061C42.4033 18.5778 36.46 30.4481 33.4883 33.4198L30.5167 34.8975V76.4682L33.4883 77.9459H66.144C72.0873 77.9459 75.059 74.9742 75.059 72.0026C75.059 69.0309 72.0873 66.0593 69.1157 66.0593C75.059 66.0593 78.0307 63.0876 78.0307 60.116C78.0307 57.1443 75.059 54.1726 72.0873 54.1726C78.0307 54.1726 81.0023 51.201 81.0023 48.2293C81.0023 45.2577 78.0307 42.286 75.059 42.286C80.9861 42.3348 83.9577 39.3631 83.9577 36.3914Z" fill="#F9AB2F"/>
</svg>
