<svg xmlns="http://www.w3.org/2000/svg" xmlns:xlink="http://www.w3.org/1999/xlink" viewBox="0 0 199.15 201.14"><defs><style>.cls-1{fill:url(#Orange_Yellow);}.cls-2{clip-path:url(#clip-path);}.cls-3{fill:#28387b;}.cls-4{fill:snow;}.cls-5{fill:none;stroke:#28387b;stroke-miterlimit:10;}</style><linearGradient id="Orange_Yellow" x1="50.31" y1="15.51" x2="148.5" y2="185.58" gradientUnits="userSpaceOnUse"><stop offset="0" stop-color="#fff33b"/><stop offset="0.04" stop-color="#fee72e"/><stop offset="0.12" stop-color="#fed51b"/><stop offset="0.2" stop-color="#fdca10"/><stop offset="0.28" stop-color="#fdc70c"/><stop offset="0.67" stop-color="#f3903f"/><stop offset="0.89" stop-color="#ed683c"/><stop offset="1" stop-color="#e93e3a"/></linearGradient><clipPath id="clip-path"><path class="cls-1" d="M194.45,75.89c-17.79.92-23,1.56-40.59-2.25a1.11,1.11,0,0,1,0-2.12c3.88-1,12.81-2.88,16.76-3.63,12.43-2.34,7.13-1.82,19.23-5.57a98.37,98.37,0,0,0-19.3-29.43H164a1,1,0,0,1-.91.51,16.44,16.44,0,0,1-4.73-.51H155a1.11,1.11,0,0,1-.55-2.05c.39-.25.8-.49,1.2-.72a1,1,0,0,1,.72-.42A37.69,37.69,0,0,1,160,27.87a1,1,0,0,1,.27-.4,6.78,6.78,0,0,1,3-1.51A98.16,98.16,0,0,0,26.81,34.45c3,.26,6.06.48,9.09.69,7.08.47,14.17.86,21.24,1.45,3.39.29,6.77.72,10.16,1,3.15.23,6.31.36,9.47.46,12.78.38,10.25-.93,22.8,1.89,1,.23-5-1.14-6.09-1-8.47,1.2,8.54,0,0,0-7.63,0-19.14,5.28-26.77,5.28s-15.31.36-22.94.87C34.89,45.66,26,46.43,17.12,47a97.69,97.69,0,0,0-15,40.51C10,92,17,98.27,26.18,100.15a1.11,1.11,0,0,1,0,2.13c-4.73,1.19-9.34,2.81-14,4.08a55.87,55.87,0,0,1-10.6,2A98.18,98.18,0,1,0,194.45,75.89Z"/></clipPath></defs><g id="Layer_2" data-name="Layer 2"><path class="cls-1" d="M194.45,75.89c-17.79.92-23,1.56-40.59-2.25a1.11,1.11,0,0,1,0-2.12c3.88-1,12.81-2.88,16.76-3.63,12.43-2.34,7.13-1.82,19.23-5.57a98.37,98.37,0,0,0-19.3-29.43H164a1,1,0,0,1-.91.51,16.44,16.44,0,0,1-4.73-.51H155a1.11,1.11,0,0,1-.55-2.05c.39-.25.8-.49,1.2-.72a1,1,0,0,1,.72-.42A37.69,37.69,0,0,1,160,27.87a1,1,0,0,1,.27-.4,6.78,6.78,0,0,1,3-1.51A98.16,98.16,0,0,0,26.81,34.45c3,.26,6.06.48,9.09.69,7.08.47,14.17.86,21.24,1.45,3.39.29,6.77.72,10.16,1,3.15.23,6.31.36,9.47.46,12.78.38,10.25-.93,22.8,1.89,1,.23-5-1.14-6.09-1-8.47,1.2,8.54,0,0,0-7.63,0-19.14,5.28-26.77,5.28s-15.31.36-22.94.87C34.89,45.66,26,46.43,17.12,47a97.69,97.69,0,0,0-15,40.51C10,92,17,98.27,26.18,100.15a1.11,1.11,0,0,1,0,2.13c-4.73,1.19-9.34,2.81-14,4.08a55.87,55.87,0,0,1-10.6,2A98.18,98.18,0,1,0,194.45,75.89Z"/><g class="cls-2"><path class="cls-3" d="M53.57,195.55c7.12,1.61,13.89,4.1,21.25,4.51,14.9.81,29.94-2.16,44.84-2.5,15.7-.35,31.23,1.13,46.9,1.42,1.76,0,3.5,0,5.24,0L104.13,97.29a3.1,3.1,0,0,0-5.17,0L33.83,195.15C40.51,194.36,46.88,194,53.57,195.55Z"/><path class="cls-4" d="M106.08,99.9l-12.64,19A1.82,1.82,0,0,0,95,121.74h25.66Z"/><path class="cls-4" d="M111.18,144.45h24.68l-14.53-21.84L109.22,140.8A2.35,2.35,0,0,0,111.18,144.45Z"/><path class="cls-4" d="M101.88,132.66h26l-14.53-21.84-12.84,19.3A1.63,1.63,0,0,0,101.88,132.66Z"/><path class="cls-3" d="M185.47,191.16c2-3.32,5.31-6.12,7.47-9.44l-36.09-54.23a3.11,3.11,0,0,0-5.18,0l-47.31,71.09c5.11-.48,10.21-.9,15.3-1,15.7-.35,31.23,1.13,46.9,1.42a102.53,102.53,0,0,0,15.41-.79C183.15,195.92,184.07,193.44,185.47,191.16Z"/><path class="cls-4" d="M158.65,129.89l-12.17,18.29A1.83,1.83,0,0,0,148,151h24.71Z"/><path class="cls-4" d="M163.72,173h23.74L173.4,151.86l-11.63,17.48A2.35,2.35,0,0,0,163.72,173Z"/><path class="cls-4" d="M154.68,161.59h25.07l-14.06-21.13L153.32,159A1.64,1.64,0,0,0,154.68,161.59Z"/><path class="cls-3" d="M40.76,126.25a3.11,3.11,0,0,0-5.18,0L6.18,170.43c2.27,2.95,3.69,6.56,5.17,10,2.41,5.54,4.29,11.82,7.73,16.87,4.33-.71,8.66-1.36,13-1.91,7.32-.93,14.21-1.45,21.47.19s13.89,4.1,21.25,4.51a123.88,123.88,0,0,0,14.92-.21Z"/><path class="cls-4" d="M42.56,128.66,30.39,147a1.83,1.83,0,0,0,1.52,2.84H56.62Z"/><path class="cls-4" d="M47.63,171.75H71.37L57.31,150.62,45.68,168.1A2.35,2.35,0,0,0,47.63,171.75Z"/><path class="cls-4" d="M38.59,160.35H63.66L49.6,139.22,37.23,157.81A1.64,1.64,0,0,0,38.59,160.35Z"/></g><path class="cls-5" d="M141.42,54.47l4.36-3.16a2.8,2.8,0,0,1,3.43-.39l3.95,3.45c1.67,1.36,2.08,1.71,2.25,1.85a.22.22,0,0,0,.32,0l4-5.72c.86-.87,2.26-.71,3.49-.63l6.12.36"/><path class="cls-5" d="M126,40.29l2.4-.95c1-.5,6.83-.71,7.33.29L138,44.32c1,1.88,1.29,2.36,1.39,2.56a.2.2,0,0,0,.31.07l5.85-3.79c1.12-.49,1.9.39,2.56,1.07l4.21,4.23"/><path class="cls-5" d="M128.91,63.4,130,61.7c.39-.76,4-3.56,4.79-3.16l3.63,1.9,2.05,1a.16.16,0,0,0,.23-.09l2-5.08c.49-.82,1.38-.61,2.11-.48l4.61.77"/><path class="cls-3" d="M62.84,69.4l-9.3,39a1.37,1.37,0,0,0,1.9,1.57l6.78-3a1.38,1.38,0,0,0,.74-.83L77.21,62.23a1.39,1.39,0,0,1,.74-.82l21.85-10c9.53-4.85,12.66-8.4,12.1-10.66-.65-2.64-6.06-4.16-15.94-1.56L71.63,45.32a1.42,1.42,0,0,1-1-.14L32,23.26a1.36,1.36,0,0,0-.82-.17l-4.63.48A1.38,1.38,0,0,0,25.84,26L54.32,49.86a1.37,1.37,0,0,1-.26,2.28L27.3,65.54a1.4,1.4,0,0,1-1.26,0L14,59.15a1.36,1.36,0,0,0-1-.12L8.91,60a1.37,1.37,0,0,0-.66,2.29L18.7,73.2a1.39,1.39,0,0,1,.38,1l-.25,14.55a1.37,1.37,0,0,0,2.08,1.2l3.68-2.21a1.33,1.33,0,0,0,.58-.7l4.12-11.22a1.39,1.39,0,0,1,1-.87l30.92-7.17A1.38,1.38,0,0,1,62.84,69.4Z"/></g></svg>