<svg width="35" height="30" viewBox="0 0 35 30" fill="none" xmlns="http://www.w3.org/2000/svg">
<path d="M31.614 0.00059015C31.4908 0.0013601 31.3676 0.00520952 31.2444 0.012909C30.2281 0.0691151 29.1733 0.305488 28.411 0.685842L28.3956 0.695081L6.76013 9.9506L6.44445 9.75042C4.85682 8.72639 3.19913 7.68696 0.759167 7.27889C0.918546 7.64077 1.11642 8.04114 1.35664 8.47231C1.87174 9.38854 2.53158 10.4203 3.18527 11.3673C3.83895 12.3066 4.4911 13.1613 4.97231 13.7079C5.15787 13.9235 5.28183 14.039 5.38962 14.1391L18.6481 8.85728L18.5557 9.966C18.2708 13.3846 17.6857 16.8647 16.7463 20.4142L18.9407 18.9513C21.4507 14.9861 22.2899 12.2373 24.4073 6.84002L24.4997 6.60904L31.5447 2.72081H31.5601C33.3233 1.83614 34.0855 1.05388 34.2087 0.768226C34.2703 0.625016 34.2549 0.662744 34.2241 0.611157C34.1933 0.560341 34.047 0.42714 33.7775 0.314728C33.3618 0.14534 32.715 0.0283079 31.9836 0.00443953C31.8681 0.000589798 31.7372 -0.000949742 31.614 0.00059015ZM9.82451 0.904507L8.12293 1.24328L14.629 5.07685L19.2564 3.09808C16.6308 2.27886 13.7666 1.51045 9.82451 0.904507ZM0 28.6141V30H34.4936V28.6141H0Z" fill="black"/>
</svg>
