<svg width="35" height="30" viewBox="0 0 35 30" fill="none" xmlns="http://www.w3.org/2000/svg">
<path d="M4.19423 0C4.04334 0.330221 3.88397 0.715478 3.73539 1.14448C3.41667 2.06529 3.11565 3.15403 2.87699 4.18068C2.63833 5.20521 2.46203 6.17894 2.38889 6.84926C2.36195 7.10328 2.36195 7.25851 2.36195 7.39257L15.2895 12.9386L14.4119 13.5736C11.7328 15.5281 8.79187 17.3133 5.55073 18.915L8.12209 19.4654C12.7413 18.661 15.3203 17.4968 20.7017 15.5211L20.9327 15.4364L28.5851 17.7155L28.6005 17.7226C30.4482 18.3435 31.5414 18.3647 31.834 18.2729C31.9802 18.2235 31.9417 18.2376 31.9571 18.1812C31.9725 18.1248 31.9725 17.9483 31.8648 17.6943C31.6569 17.1863 31.0872 16.4525 30.3558 15.8104C29.6244 15.1683 28.7237 14.6109 27.9307 14.3357L27.9076 14.3286L6.35909 5.67796L6.29751 5.35339C5.94337 3.64584 5.56613 1.88677 4.19423 0ZM13.642 1.1339L15.2972 7.87944L19.901 9.73516C18.7077 7.47019 17.2989 5.07115 15.0432 2.05612L13.642 1.1339ZM0 28.7299V30H34.49V28.7299H0Z" fill="black"/>
</svg>
