<svg width="35" height="30" viewBox="0 0 35 30" fill="none" xmlns="http://www.w3.org/2000/svg">
<path d="M2.87967 0.00059015C3.00286 0.0013601 3.12605 0.00520952 3.24924 0.012909C4.26557 0.0691151 5.3204 0.305488 6.08264 0.685842L6.09804 0.695081L27.7335 9.9506L28.0492 9.75042C29.6368 8.72639 31.2945 7.68696 33.7345 7.27889C33.5751 7.64077 33.3772 8.04114 33.137 8.47231C32.6219 9.38854 31.9621 10.4203 31.3084 11.3673C30.6547 12.3066 30.0026 13.1613 29.5213 13.7079C29.3358 13.9235 29.2118 14.039 29.104 14.1391L15.8456 8.85728L15.938 9.966C16.2228 13.3846 16.808 16.8647 17.7473 20.4142L15.553 18.9513C13.043 14.9861 12.2037 12.2373 10.0864 6.84002L9.99397 6.60904L2.94896 2.72081H2.93356C1.17039 1.83614 0.408141 1.05388 0.28495 0.768226C0.223354 0.625016 0.238752 0.662744 0.26955 0.611157C0.300348 0.560341 0.446637 0.42714 0.716118 0.314728C1.13189 0.14534 1.77864 0.0283079 2.51009 0.00443953C2.62559 0.000589798 2.75648 -0.000949742 2.87967 0.00059015ZM24.6691 0.904507L26.3707 1.24328L19.8647 5.07685L15.2373 3.09808C17.8628 2.27886 20.727 1.51045 24.6691 0.904507ZM34.4937 28.6141V30H6.91414e-05V28.6141H34.4937Z" fill="black"/>
</svg>
