<svg width="35" height="30" viewBox="0 0 35 30" fill="none" xmlns="http://www.w3.org/2000/svg">
<path d="M30.2958 0C30.4467 0.330221 30.606 0.715478 30.7546 1.14448C31.0733 2.06529 31.3743 3.15403 31.613 4.18068C31.8517 5.20521 32.028 6.17894 32.1011 6.84926C32.128 7.10328 32.128 7.25851 32.128 7.39257L19.2004 12.9386L20.0781 13.5736C22.7572 15.5281 25.6981 17.3133 28.9393 18.915L26.3679 19.4654C21.7487 18.661 19.1697 17.4968 13.7883 15.5211L13.5573 15.4364L5.90486 17.7155L5.88946 17.7226C4.04179 18.3435 2.94858 18.3647 2.65603 18.2729C2.50975 18.2235 2.54824 18.2376 2.53285 18.1812C2.51745 18.1248 2.51745 17.9483 2.62523 17.6943C2.8331 17.1863 3.4028 16.4525 4.13417 15.8104C4.86554 15.1683 5.76629 14.6109 6.55925 14.3357L6.58234 14.3286L28.1309 5.67796L28.1925 5.35339C28.5466 3.64584 28.9239 1.88677 30.2958 0ZM20.848 1.1339L19.1928 7.87944L14.589 9.73516C15.7822 7.47019 17.1911 5.07115 19.4468 2.05612L20.848 1.1339ZM34.49 28.7299V30H-1.14441e-05V28.7299H34.49Z" fill="black"/>
</svg>
