<svg width="34" height="34" viewBox="0 0 34 34" fill="none" xmlns="http://www.w3.org/2000/svg">
<path d="M25.6762 25.4706V29.2353C25.6762 30.2338 25.3048 31.1913 24.6437 31.8973C23.9826 32.6034 23.0859 33 22.151 33H4.52517C3.59023 33 2.69359 32.6034 2.0325 31.8973C1.3714 31.1913 1 30.2338 1 29.2353V16.0588C1 15.0604 1.3714 14.1028 2.0325 13.3968C2.69359 12.6908 3.59023 12.2941 4.52517 12.2941H8.05033M13.3381 4.76471H11.5755C10.6406 4.76471 9.74393 5.16134 9.08283 5.86736C8.42173 6.57338 8.05033 7.53095 8.05033 8.52941V21.7059C8.05033 22.7043 8.42173 23.6619 9.08283 24.3679C9.74393 25.074 10.6406 25.4706 11.5755 25.4706H29.2013C30.1363 25.4706 31.0329 25.074 31.694 24.3679C32.3551 23.6619 32.7265 22.7043 32.7265 21.7059V8.52941C32.7265 7.53095 32.3551 6.57338 31.694 5.86736C31.0329 5.16134 30.1363 4.76471 29.2013 4.76471H27.4387M25.6762 12.2941L20.3884 17.9412M20.3884 17.9412L15.1007 12.2941M20.3884 17.9412V1" stroke="white" stroke-width="2" stroke-linecap="round" stroke-linejoin="round"/>
</svg>
