<svg width="36" height="36" viewBox="0 0 36 36" fill="none" xmlns="http://www.w3.org/2000/svg">
<path d="M26.6762 26.4706V30.2353C26.6762 31.2338 26.3048 32.1913 25.6437 32.8973C24.9826 33.6034 24.0859 34 23.151 34H5.52517C4.59023 34 3.69359 33.6034 3.0325 32.8973C2.3714 32.1913 2 31.2338 2 30.2353V17.0588C2 16.0604 2.3714 15.1028 3.0325 14.3968C3.69359 13.6908 4.59023 13.2941 5.52517 13.2941H9.05033M14.3381 5.76471H12.5755C11.6406 5.76471 10.7439 6.16134 10.0828 6.86736C9.42173 7.57338 9.05033 8.53095 9.05033 9.52941V22.7059C9.05033 23.7043 9.42173 24.6619 10.0828 25.3679C10.7439 26.074 11.6406 26.4706 12.5755 26.4706H30.2013C31.1363 26.4706 32.0329 26.074 32.694 25.3679C33.3551 24.6619 33.7265 23.7043 33.7265 22.7059V9.52941C33.7265 8.53095 33.3551 7.57338 32.694 6.86736C32.0329 6.16134 31.1363 5.76471 30.2013 5.76471H28.4387M26.6762 13.2941L21.3884 18.9412M21.3884 18.9412L16.1007 13.2941M21.3884 18.9412V2" stroke="white" stroke-width="3" stroke-linecap="round" stroke-linejoin="round"/>
</svg>
