<svg width="43" height="43" viewBox="0 0 43 43" fill="none" xmlns="http://www.w3.org/2000/svg">
<g clip-path="url(#clip0_76_420)">
<path d="M27.735 30.788C24.2793 33.4724 19.9304 34.7388 15.5738 34.3294C11.2172 33.9199 7.18042 31.8653 4.28547 28.584C1.39051 25.3027 -0.144949 21.0413 -0.00827843 16.6676C0.128392 12.2939 1.92692 8.13677 5.02109 5.04259C8.11527 1.94842 12.2724 0.149892 16.6461 0.0132212C21.0198 -0.123449 25.2812 1.41201 28.5625 4.30697C31.8438 7.20192 33.8984 11.2387 34.3079 15.5953C34.7173 19.9519 33.4509 24.3008 30.7665 27.7565L42.269 39.216L39.216 42.269L27.7565 30.788H27.735ZM17.2 30.1C18.8941 30.1 20.5715 29.7663 22.1366 29.1181C23.7017 28.4698 25.1238 27.5196 26.3217 26.3217C27.5196 25.1238 28.4698 23.7017 29.118 22.1366C29.7663 20.5715 30.1 18.8941 30.1 17.2C30.1 15.5059 29.7663 13.8285 29.118 12.2634C28.4698 10.6983 27.5196 9.2762 26.3217 8.07832C25.1238 6.88044 23.7017 5.93024 22.1366 5.28195C20.5715 4.63366 18.8941 4.3 17.2 4.3C13.7787 4.3 10.4975 5.6591 8.07832 8.07832C5.6591 10.4975 4.3 13.7787 4.3 17.2C4.3 20.6213 5.6591 23.9025 8.07832 26.3217C10.4975 28.7409 13.7787 30.1 17.2 30.1Z" fill="white"/>
</g>
<defs>
<clipPath id="clip0_76_420">
<rect width="43" height="43" fill="white"/>
</clipPath>
</defs>
</svg>
