<svg width="85" height="84" viewBox="0 0 85 84" fill="none" xmlns="http://www.w3.org/2000/svg">
<path d="M0.566828 52.4279C1.25874 54.2658 2.03762 56.0945 2.97533 57.8765C11.2181 73.54 26.9737 82.6627 43.4807 83.206L43.2202 76.9574L25.2448 42.7993L21.2312 41.5535L0.566828 52.4279ZM75.167 16.5283C73.7831 13.8985 69.7695 12.6527 67.1397 14.0365L46.1161 25.1C44.656 19.1524 43.2179 13.2115 41.834 10.5818C39.0662 5.32225 33.6763 1.461 31.6729 0.827102C31.629 0.813484 29.677 0.207569 27.0473 1.59145C23.1098 3.66349 25.1819 7.60093 25.1819 7.60093C25.2197 7.67278 27.3301 14.8563 28.714 17.486C30.0979 20.1158 30.3663 33.3882 29.1205 37.4018L27.1789 40.0934L46.5381 76.8812L49.856 76.805L78.7545 61.5974C84.014 58.8296 85.2599 54.816 83.876 52.1863C82.4921 49.5565 78.4785 48.3106 75.8487 49.6945C81.1082 46.9268 82.3541 42.9131 80.9702 40.2834C79.5864 37.6536 75.5727 36.4077 72.943 37.7916C78.2025 35.0239 79.4483 31.0102 78.0645 28.3805C76.6806 25.7507 72.6669 24.5049 70.0372 25.8887C75.305 23.1717 76.5509 19.158 75.167 16.5283Z" fill="#F9AB2F"/>
</svg>
