<svg width="97" height="74" viewBox="0 0 97 74" fill="none" xmlns="http://www.w3.org/2000/svg">
<path d="M85.8128 62.0433C88.0555 58.6106 92.387 51.2433 89.926 43.2119C87.7726 36.1844 79.9032 32.0067 70.7951 30.954C72.3821 27.1731 72.5036 22.194 71.1193 17.6764C66.8124 3.62143 48.7178 -3.46304 30.1452 2.22814C12.5765 7.61169 -3.76987 24.1517 0.844599 39.2106C4.07473 49.7518 14.4134 54.8201 18.85 56.7552C20.1938 62.9326 18.4531 66.2114 18.4531 66.2114L13.9677 73.0769L21.4971 70.7696C27.5207 68.9238 32.0788 65.8798 35.4793 62.6414C39.9076 71.7172 53.258 75.8627 67.313 71.5559L69.8228 70.7868C73.6036 72.3737 80.8577 74.5436 89.3911 71.9288L96.4185 69.7753L89.5126 66.9497C89.5126 66.9497 87.5453 65.9052 85.8128 62.0433ZM65.7748 66.5363C54.2297 70.074 42.1909 66.6248 39.8836 59.0954L39.576 58.0915C40.2723 56.7799 41.1224 55.9703 41.3167 54.8126L44.8305 53.7359C55.3716 50.5058 63.8322 44.0695 68.01 36.2002C76.3085 36.4028 83.3682 39.7304 84.9064 44.75C86.4445 49.7697 83.465 56.1736 80.2184 59.914L79.0202 61.3793L79.4816 62.8852C80.2507 65.395 81.7161 66.5933 82.6795 67.9453C77.3522 68.4796 73.0694 67.0465 71.604 65.8482L70.7944 64.9981L65.7748 66.5363ZM31.6833 7.24776C47.2442 2.47948 62.7157 8.17136 66.0996 19.2145C69.4836 30.2577 59.3551 43.7942 43.2923 48.7163L37.7707 50.4082L37.5764 51.566C36.6858 54.0353 31.8927 59.8968 24.3228 63.8637C24.2095 61.702 23.2866 58.6903 22.0561 54.6746L21.5946 53.1687C15.3445 50.6911 7.66949 45.3556 5.51607 38.3282C2.13213 27.285 15.1186 12.3237 31.6833 7.24776Z" fill="#99CFFE"/>
</svg>
